<svg xmlns="http://www.w3.org/2000/svg" id="svg8" viewBox="0 0 226.284 259.667"><defs id="defs2"><style id="style10"/></defs><g id="layer1" transform="translate(77.306 43.657)"><path id="path4589-8-3-3" stroke-width=".973" d="M-64.674-41.219s-65.49 163.606 101.758 257.229c65.706-22.68 111.511-80.827 111.894-136.648-5.013 16.407-10.762 56.552-69.466 94.502 74.755-57.952 81.097-154.15 53.071-217.521 9.58 82.156-20.177 161.842-87.54 195.51-14.639-10.04-13.465-58.947-9.618-64.92l8.602 18.93-4.055-19.962s1.904 4.065 7.137 10.828c-7.034-22.458-2.503-45.013-2.503-45.013s-15.16 18.105-38.687 28.6c7.643-.205 12.362-1.204 14.356-1.806-3.589 2.655-16.814 8.894-16.814 8.894l19.12-4.064s-14.61 28.48-9.01 67.365C-31.625 109.497-73.901 45.869-64.673-41.22z"/><path id="rect3996" stroke-width=".278" d="M189.08-37.278h473.023v310.401H189.08z" opacity=".01"/></g></svg>