<?xml version="1.0" encoding="UTF-8" standalone="no"?>
<!-- Created with Inkscape (http://www.inkscape.org/) -->

<svg
   xmlns:dc="http://purl.org/dc/elements/1.1/"
   xmlns:cc="http://creativecommons.org/ns#"
   xmlns:rdf="http://www.w3.org/1999/02/22-rdf-syntax-ns#"
   xmlns:svg="http://www.w3.org/2000/svg"
   xmlns="http://www.w3.org/2000/svg"
   xmlns:sodipodi="http://sodipodi.sourceforge.net/DTD/sodipodi-0.dtd"
   xmlns:inkscape="http://www.inkscape.org/namespaces/inkscape"
   width="386.99048mm"
   height="135.87099mm"
   viewBox="0 0 386.99047 135.87099"
   version="1.1"
   id="svg8"
   inkscape:version="0.92.2 (5c3e80d, 2017-08-06)"
   sodipodi:docname="logo.svg">
  <defs
     id="defs2">
    <style
       id="style10"
       type="text/css">
   
    .fil0 {fill:black}
   
  </style>
  </defs>
  <sodipodi:namedview
     id="base"
     pagecolor="#ffffff"
     bordercolor="#666666"
     borderopacity="1.0"
     inkscape:pageopacity="0.0"
     inkscape:pageshadow="2"
     inkscape:zoom="1.03"
     inkscape:cx="478.69465"
     inkscape:cy="159.33224"
     inkscape:document-units="mm"
     inkscape:current-layer="layer1"
     showgrid="false"
     showguides="true"
     inkscape:guide-bbox="true"
     inkscape:window-width="1920"
     inkscape:window-height="1043"
     inkscape:window-x="1366"
     inkscape:window-y="0"
     inkscape:window-maximized="1"
     inkscape:snap-nodes="false" />
  <metadata
     id="metadata5">
    <rdf:RDF>
      <cc:Work
         rdf:about="">
        <dc:format>image/svg+xml</dc:format>
        <dc:type
           rdf:resource="http://purl.org/dc/dcmitype/StillImage" />
        <dc:title />
      </cc:Work>
    </rdf:RDF>
  </metadata>
  <g
     inkscape:label="Capa 1"
     inkscape:groupmode="layer"
     id="layer1"
     style="display:inline"
     transform="translate(92.229543,-24.73425)">
    <path
       style="display:inline;fill:#6c59b8;fill-opacity:1;fill-rule:nonzero;stroke:none;stroke-width:0.39970231px;stroke-linecap:butt;stroke-linejoin:miter;stroke-opacity:1"
       d="m -87.0391,25.73623 c 0,0 -26.90862,67.22239 41.810483,105.68995 C -18.231357,122.10736 0.58906087,98.216115 0.74626897,75.28033 -1.3133436,82.021861 -3.6757563,98.516457 -27.795886,114.10938 2.9192322,90.297846 5.525085,50.772422 -5.9899754,24.73425 c 3.9358642,33.756242 -8.2905306,66.497597 -35.9683896,80.33157 -6.014979,-4.12536 -5.532593,-24.220492 -3.951974,-26.674821 l 3.534475,7.778464 -1.666402,-8.20249 c 0,0 0.782558,1.670387 2.932604,4.449077 -2.890162,-9.227569 -1.028694,-18.494756 -1.028694,-18.494756 0,0 -6.228896,7.439068 -15.895363,11.751149 3.140275,-0.0843 5.079078,-0.494643 5.898303,-0.741992 -1.474525,1.09069 -6.908483,3.654366 -6.908483,3.654366 l 7.856226,-1.669783 c 0,0 -6.003386,11.701656 -3.701771,27.678666 -18.571105,-16.93131 -35.94135,-43.074913 -32.149671,-78.85747 z"
       id="path4589-8-3-3"
       inkscape:connector-curvature="0"
       sodipodi:nodetypes="cccccccccccccccccc"
       inkscape:export-xdpi="72"
       inkscape:export-ydpi="72" />
    <rect
       style="opacity:0.01000001;fill:none;stroke-width:0.27799079"
       id="rect3996"
       width="473.02338"
       height="310.4014"
       x="189.08029"
       y="-37.278458" />
    <path
       inkscape:connector-curvature="0"
       id="path29"
       style="font-style:normal;font-variant:normal;font-weight:normal;font-stretch:normal;font-size:32.04577255px;line-height:1.25;font-family:'Rounded Elegance';-inkscape-font-specification:'Rounded Elegance';letter-spacing:0px;word-spacing:0px;fill:#6c70b8;fill-opacity:1;stroke:none;stroke-width:0.3750011"
       d="m 28.767955,85.599935 q 8.894556,0 14.765668,6.433613 5.414079,5.87111 5.414079,13.957072 0.0703,19.96882 0,20.28521 -3.375011,0 -5.238299,0 0,-0.24609 0,-8.75393 -4.113291,7.66408 -14.941448,8.57816 -8.859401,0 -14.484418,-6.01174 -5.5898607,-6.04691 -5.5898607,-14.0977 0,-8.015649 5.3086097,-13.921917 5.87111,-6.468768 14.765669,-6.468768 z m 0,4.851576 q -6.152362,0 -10.582064,4.570327 -4.429701,4.570325 -4.429701,11.039092 0,4.18361 2.250008,8.05081 2.285164,3.8672 7.69924,6.53909 13.570353,3.02344 19.300838,-12.33989 0.316409,-4.92189 -1.054689,-9.421904 -0.984379,-2.039068 -2.70704,-3.867198 -4.324231,-4.570327 -10.476592,-4.570327 z"
       inkscape:export-xdpi="72"
       inkscape:export-ydpi="72" />
    <path
       inkscape:connector-curvature="0"
       id="path31"
       style="font-style:normal;font-variant:normal;font-weight:normal;font-stretch:normal;font-size:32.04577255px;line-height:1.25;font-family:'Rounded Elegance';-inkscape-font-specification:'Rounded Elegance';letter-spacing:0px;word-spacing:0px;fill:#6c70b8;fill-opacity:1;stroke:none;stroke-width:0.3750011"
       d="m 57.877416,72.592083 h 4.992201 V 126.0649 h -4.992201 z"
       inkscape:export-xdpi="72"
       inkscape:export-ydpi="72" />
    <path
       inkscape:connector-curvature="0"
       id="path33"
       style="font-style:normal;font-variant:normal;font-weight:normal;font-stretch:normal;font-size:32.04577255px;line-height:1.25;font-family:'Rounded Elegance';-inkscape-font-specification:'Rounded Elegance';letter-spacing:0px;word-spacing:0px;fill:#6c70b8;fill-opacity:1;stroke:none;stroke-width:0.3750011"
       d="m 68.986825,86.584313 h 5.238296 L 87.479067,116.29144 100.3463,86.584313 h 5.30861 L 82.627488,139.21338 h -5.238296 l 7.417991,-16.98052 z"
       inkscape:export-xdpi="72"
       inkscape:export-ydpi="72" />
    <path
       inkscape:connector-curvature="0"
       id="path35"
       style="font-style:normal;font-variant:normal;font-weight:normal;font-stretch:normal;font-size:32.04577255px;line-height:1.25;font-family:'Rounded Elegance';-inkscape-font-specification:'Rounded Elegance';letter-spacing:0px;word-spacing:0px;fill:#6c70b8;fill-opacity:1;stroke:none;stroke-width:0.3750011"
       d="m 110.19006,108.41641 v -4.64064 q 0.56251,-3.48048 1.6172,-5.660174 2.46093,-6.046893 6.60939,-8.859401 4.14845,-2.812508 6.89064,-2.812508 2.03908,0 4.35939,1.335943 l -2.5664,4.148449 q -3.26956,-1.195316 -6.50393,1.933599 -3.19923,3.128915 -4.42971,6.820332 -0.91406,3.26954 -0.91406,12.26957 v 13.043 h -5.06252 z"
       inkscape:export-xdpi="72"
       inkscape:export-ydpi="72" />
    <path
       inkscape:connector-curvature="0"
       id="path37"
       style="font-style:normal;font-variant:normal;font-weight:normal;font-stretch:normal;font-size:32.04577255px;line-height:1.25;font-family:'Rounded Elegance';-inkscape-font-specification:'Rounded Elegance';letter-spacing:0px;word-spacing:0px;fill:#6c70b8;fill-opacity:1;stroke:none;stroke-width:0.3750011"
       d="m 135.60812,71.642863 q 1.6875,0 2.88281,1.195316 1.23048,1.195316 1.23048,2.882821 0,1.687504 -1.23048,2.917978 -1.19531,1.195314 -2.88281,1.195314 -1.68752,0 -2.88284,-1.195314 -1.19531,-1.230474 -1.19531,-2.917978 0,-1.687505 1.19531,-2.882821 1.19532,-1.195316 2.88284,-1.195316 z m -2.46096,15.855515 h 4.95706 V 126.0649 h -4.95706 z"
       inkscape:export-xdpi="72"
       inkscape:export-ydpi="72" />
    <path
       inkscape:connector-curvature="0"
       id="path39"
       style="font-style:normal;font-variant:normal;font-weight:normal;font-stretch:normal;font-size:32.04577255px;line-height:1.25;font-family:'Rounded Elegance';-inkscape-font-specification:'Rounded Elegance';letter-spacing:0px;word-spacing:0px;fill:#6c70b8;fill-opacity:1;stroke:none;stroke-width:0.3750011"
       d="m 166.58086,85.599935 q 8.89455,0 14.76567,6.433613 5.41407,5.87111 5.41407,13.957072 0.0703,19.96882 0,20.28521 -3.37499,0 -5.23828,0 0,-0.24609 0,-8.75393 -4.11329,7.66408 -14.94146,8.57816 -8.8594,0 -14.48443,-6.01174 -5.58984,-6.04691 -5.58984,-14.0977 0,-8.015649 5.30861,-13.921917 5.8711,-6.468768 14.76566,-6.468768 z m 0,4.851576 q -6.15235,0 -10.58206,4.570327 -4.42971,4.570325 -4.42971,11.039092 0,4.18361 2.25,8.05081 2.28517,3.8672 7.69925,6.53909 13.57036,3.02344 19.30085,-12.33989 0.31641,-4.92189 -1.05469,-9.421904 -0.98439,-2.039068 -2.70705,-3.867198 -4.32422,-4.570327 -10.47659,-4.570327 z"
       inkscape:export-xdpi="72"
       inkscape:export-ydpi="72" />
    <path
       inkscape:connector-curvature="0"
       id="path41"
       style="font-style:normal;font-variant:normal;font-weight:normal;font-stretch:normal;font-size:32.04577255px;line-height:1.25;font-family:'Rounded Elegance';-inkscape-font-specification:'Rounded Elegance';letter-spacing:0px;word-spacing:0px;fill:#6c70b8;fill-opacity:1;stroke:none;stroke-width:0.3750011"
       d="m 196.4286,111.43985 -0.0703,-4.11329 q -0.10537,-3.02345 0.2461,-5.13283 0.77343,-6.644547 3.37502,-9.738306 2.53123,-2.70704 5.16798,-4.183607 4.35938,-1.863286 9.94925,-1.757817 4.35938,0 8.05079,2.21485 3.72658,2.179695 5.30861,5.906268 1.58204,3.691416 1.58204,11.601592 v 19.82819 h -4.92189 v -18.38677 q 0,-6.67971 -0.56251,-8.929718 -0.8789,-3.832043 -3.48046,-5.414079 -2.60159,-1.617192 -7.69924,-1.617192 -4.50002,0 -8.01566,2.60157 -3.51563,2.601568 -3.26954,7.101579 -0.66797,2.88282 -0.66797,10.51174 v 14.13287 h -4.99221 z"
       inkscape:export-xdpi="72"
       inkscape:export-ydpi="72" />
    <path
       inkscape:connector-curvature="0"
       id="path43"
       style="font-style:normal;font-variant:normal;font-weight:normal;font-stretch:normal;font-size:32.04577255px;line-height:1.25;font-family:'Rounded Elegance';-inkscape-font-specification:'Rounded Elegance';letter-spacing:0px;word-spacing:0px;fill:#6c70b8;fill-opacity:1;stroke:none;stroke-width:0.3750011"
       d="m 246.03421,117.34613 q 1.79299,0 3.05861,1.30078 1.30078,1.26562 1.30078,3.09375 0,1.79298 -1.30078,3.09376 -1.26562,1.26564 -3.05861,1.26564 -1.82812,0 -3.09376,-1.26564 -1.26562,-1.30078 -1.26562,-3.09376 0,-1.82813 1.26562,-3.09375 1.26564,-1.30078 3.09376,-1.30078 z"
       inkscape:export-xdpi="72"
       inkscape:export-ydpi="72" />
    <path
       inkscape:connector-curvature="0"
       id="path45"
       style="font-style:normal;font-variant:normal;font-weight:normal;font-stretch:normal;font-size:32.04577255px;line-height:1.25;font-family:'Rounded Elegance';-inkscape-font-specification:'Rounded Elegance';letter-spacing:0px;word-spacing:0px;fill:#6c70b8;fill-opacity:1;stroke:none;stroke-width:0.3750011"
       d="m 262.97957,70.728798 q 1.72266,0 2.88284,1.195316 1.19531,1.195316 1.19531,2.882819 0,1.687506 -1.19531,2.917977 -1.16018,1.195317 -2.88284,1.195317 -1.6875,0 -2.88282,-1.195317 -1.19531,-1.230471 -1.19531,-2.917977 0,-1.687503 1.19531,-2.882819 1.19532,-1.195316 2.88282,-1.195316 z m -2.42577,15.855515 h 5.02735 v 33.046967 q -1.19531,15.46881 -6.57425,20.60163 -2.14452,-3.19923 -2.98828,-4.35939 4.14846,-6.53909 4.53518,-17.71881 z"
       inkscape:export-xdpi="72"
       inkscape:export-ydpi="72" />
    <path
       inkscape:connector-curvature="0"
       id="path47"
       style="font-style:normal;font-variant:normal;font-weight:normal;font-stretch:normal;font-size:32.04577255px;line-height:1.25;font-family:'Rounded Elegance';-inkscape-font-specification:'Rounded Elegance';letter-spacing:0px;word-spacing:0px;fill:#6c70b8;fill-opacity:1;stroke:none;stroke-width:0.3750011"
       d="m 294.72579,90.803076 -3.1641,3.304697 q -4.0078,-3.8672 -7.76954,-3.8672 -2.42579,0 -4.14846,1.582037 -1.72266,1.582036 -1.72266,3.761729 0,1.82813 1.44141,3.515635 1.40627,1.792976 5.94144,4.113296 5.5547,2.84766 7.52346,5.51955 1.93359,2.70703 1.93359,6.08205 0,4.71094 -3.33984,8.01564 -3.30472,3.26955 -8.29691,3.26955 -3.33986,0 -6.39846,-1.40626 -3.02344,-1.44141 -4.9922,-4.00783 l 3.12891,-3.55079 q 3.7969,4.28908 8.05082,4.28908 2.95312,0 5.02736,-1.89845 2.10938,-1.93359 2.10938,-4.50001 0,-2.14454 -1.37111,-3.79688 -1.37108,-1.65236 -6.22267,-4.14845 -5.23829,-2.63673 -7.10158,-5.30861 -1.89845,-2.601573 -1.89845,-5.976583 0,-4.394543 2.98828,-7.277365 3.02347,-2.917977 7.55862,-2.917977 5.30861,0 10.72271,5.203141 z"
       inkscape:export-xdpi="72"
       inkscape:export-ydpi="72" />
    <path
       inkscape:connector-curvature="0"
       id="path88"
       style="font-style:normal;font-variant:normal;font-weight:normal;font-stretch:normal;font-size:6.88229752px;line-height:1.25;font-family:Cantarell;-inkscape-font-specification:Cantarell;letter-spacing:0.83079165px;word-spacing:0px;fill:#6c70b8;fill-opacity:1;stroke:none;stroke-width:0.57986617"
       d="m -58.986831,149.75014 v 10.70046 h 6.092462 v -1.12881 h -4.809024 v -9.57165 z"
       inkscape:export-xdpi="72"
       inkscape:export-ydpi="72" />
    <path
       inkscape:connector-curvature="0"
       id="path90"
       style="font-style:normal;font-variant:normal;font-weight:normal;font-stretch:normal;font-size:6.88229752px;line-height:1.25;font-family:Cantarell;-inkscape-font-specification:Cantarell;letter-spacing:0.83079165px;word-spacing:0px;fill:#6c70b8;fill-opacity:1;stroke:none;stroke-width:0.57986617"
       d="m -49.569872,149.75014 v 10.70046 h 1.283437 v -10.70046 z"
       inkscape:export-xdpi="72"
       inkscape:export-ydpi="72" />
    <path
       inkscape:connector-curvature="0"
       id="path92"
       style="font-style:normal;font-variant:normal;font-weight:normal;font-stretch:normal;font-size:6.88229752px;line-height:1.25;font-family:Cantarell;-inkscape-font-specification:Cantarell;letter-spacing:0.83079165px;word-spacing:0px;fill:#6c70b8;fill-opacity:1;stroke:none;stroke-width:0.57986617"
       d="m -36.184698,151.35831 0.494817,-1.06696 c -0.525745,-0.30927 -1.670014,-0.75769 -3.200859,-0.75769 -3.49466,0 -5.350232,2.4741 -5.350232,5.56672 0,3.5565 2.10298,5.50485 5.195601,5.50485 1.685476,0 3.061693,-0.69583 3.525586,-1.20612 v -4.59254 h -4.298741 v 1.12881 h 3.015303 v 2.98437 c -0.463893,0.27834 -1.190658,0.55669 -2.242148,0.55669 -2.474097,0 -3.912163,-1.42262 -3.912163,-4.37606 0,-2.48955 1.190658,-4.43791 4.066794,-4.43791 0.943248,0 2.010203,0.2474 2.706042,0.69584 z"
       inkscape:export-xdpi="72"
       inkscape:export-ydpi="72" />
    <path
       inkscape:connector-curvature="0"
       id="path94"
       style="font-style:normal;font-variant:normal;font-weight:normal;font-stretch:normal;font-size:6.88229752px;line-height:1.25;font-family:Cantarell;-inkscape-font-specification:Cantarell;letter-spacing:0.83079165px;word-spacing:0px;fill:#6c70b8;fill-opacity:1;stroke:none;stroke-width:0.57986617"
       d="m -23.831445,149.75014 v 4.43791 h -5.953291 v -4.43791 h -1.283438 v 10.70046 h 1.283438 v -5.13374 h 5.953291 v 5.13374 h 1.283438 v -10.70046 z"
       inkscape:export-xdpi="72"
       inkscape:export-ydpi="72" />
    <path
       inkscape:connector-curvature="0"
       id="path96"
       style="font-style:normal;font-variant:normal;font-weight:normal;font-stretch:normal;font-size:6.88229752px;line-height:1.25;font-family:Cantarell;-inkscape-font-specification:Cantarell;letter-spacing:0.83079165px;word-spacing:0px;fill:#6c70b8;fill-opacity:1;stroke:none;stroke-width:0.57986617"
       d="m -19.216986,149.75014 v 1.12881 h 3.571973 v 9.57165 h 1.283438 v -9.57165 h 3.587438 v -1.12881 z"
       inkscape:export-xdpi="72"
       inkscape:export-ydpi="72" />
    <path
       inkscape:connector-curvature="0"
       id="path98"
       style="font-style:normal;font-variant:normal;font-weight:normal;font-stretch:normal;font-size:6.88229752px;line-height:1.25;font-family:Cantarell;-inkscape-font-specification:Cantarell;letter-spacing:0.83079165px;word-spacing:0px;fill:#6c70b8;fill-opacity:1;stroke:none;stroke-width:0.57986617"
       d="m -8.5919772,149.75014 3.3709554,10.70046 h 1.3607521 l 2.6287274,-9.216 2.8297457,9.216 H 2.9744202 L 6.1752799,149.75014 H 4.7217487 l -2.4277046,9.06138 -2.82974794,-9.06138 H -1.927383 l -2.6132628,9.06138 -2.5978003,-9.06138 z"
       inkscape:export-xdpi="72"
       inkscape:export-ydpi="72" />
    <path
       inkscape:connector-curvature="0"
       id="path100"
       style="font-style:normal;font-variant:normal;font-weight:normal;font-stretch:normal;font-size:6.88229752px;line-height:1.25;font-family:Cantarell;-inkscape-font-specification:Cantarell;letter-spacing:0.83079165px;word-spacing:0px;fill:#6c70b8;fill-opacity:1;stroke:none;stroke-width:0.57986617"
       d="m 9.5048516,160.4506 h 6.2780174 v -1.12881 h -4.99458 v -4.00493 h 4.577077 v -1.12881 h -4.577077 v -3.3091 h 4.99458 v -1.12881 H 9.5048516 Z"
       inkscape:export-xdpi="72"
       inkscape:export-ydpi="72" />
    <path
       inkscape:connector-curvature="0"
       id="path102"
       style="font-style:normal;font-variant:normal;font-weight:normal;font-stretch:normal;font-size:6.88229752px;line-height:1.25;font-family:Cantarell;-inkscape-font-specification:Cantarell;letter-spacing:0.83079165px;word-spacing:0px;fill:#6c70b8;fill-opacity:1;stroke:none;stroke-width:0.57986617"
       d="m 19.616439,149.75014 v 10.70046 h 1.283438 v -10.70046 z"
       inkscape:export-xdpi="72"
       inkscape:export-ydpi="72" />
    <path
       inkscape:connector-curvature="0"
       id="path104"
       style="font-style:normal;font-variant:normal;font-weight:normal;font-stretch:normal;font-size:6.88229752px;line-height:1.25;font-family:Cantarell;-inkscape-font-specification:Cantarell;letter-spacing:0.83079165px;word-spacing:0px;fill:#6c70b8;fill-opacity:1;stroke:none;stroke-width:0.57986617"
       d="m 33.001616,151.35831 0.494818,-1.06696 c -0.525746,-0.30927 -1.670015,-0.75769 -3.20086,-0.75769 -3.49466,0 -5.350232,2.4741 -5.350232,5.56672 0,3.5565 2.10298,5.50485 5.195601,5.50485 1.685476,0 3.061693,-0.69583 3.525586,-1.20612 v -4.59254 h -4.298741 v 1.12881 h 3.015304 v 2.98437 c -0.463894,0.27834 -1.190659,0.55669 -2.242149,0.55669 -2.474097,0 -3.912163,-1.42262 -3.912163,-4.37606 0,-2.48955 1.190659,-4.43791 4.066794,-4.43791 0.943248,0 2.010203,0.2474 2.706042,0.69584 z"
       inkscape:export-xdpi="72"
       inkscape:export-ydpi="72" />
    <path
       inkscape:connector-curvature="0"
       id="path106"
       style="font-style:normal;font-variant:normal;font-weight:normal;font-stretch:normal;font-size:6.88229752px;line-height:1.25;font-family:Cantarell;-inkscape-font-specification:Cantarell;letter-spacing:0.83079165px;word-spacing:0px;fill:#6c70b8;fill-opacity:1;stroke:none;stroke-width:0.57986617"
       d="m 45.354867,149.75014 v 4.43791 h -5.953293 v -4.43791 h -1.283438 v 10.70046 h 1.283438 v -5.13374 h 5.953293 v 5.13374 h 1.283435 v -10.70046 z"
       inkscape:export-xdpi="72"
       inkscape:export-ydpi="72" />
    <path
       inkscape:connector-curvature="0"
       id="path108"
       style="font-style:normal;font-variant:normal;font-weight:normal;font-stretch:normal;font-size:6.88229752px;line-height:1.25;font-family:Cantarell;-inkscape-font-specification:Cantarell;letter-spacing:0.83079165px;word-spacing:0px;fill:#6c70b8;fill-opacity:1;stroke:none;stroke-width:0.57986617"
       d="m 49.969325,149.75014 v 1.12881 h 3.571976 v 9.57165 h 1.283436 v -9.57165 h 3.587441 v -1.12881 z"
       inkscape:export-xdpi="72"
       inkscape:export-ydpi="72" />
    <path
       inkscape:connector-curvature="0"
       id="path110"
       style="font-style:normal;font-variant:normal;font-weight:normal;font-stretch:normal;font-size:6.88229752px;line-height:1.25;font-family:Cantarell;-inkscape-font-specification:Cantarell;letter-spacing:0.83079165px;word-spacing:0px;fill:#6c70b8;fill-opacity:1;stroke:none;stroke-width:0.57986617"
       d="m 70.80233,160.60523 c 2.257613,0 3.94309,-1.20612 3.94309,-2.90706 0,-3.46372 -5.906904,-2.8916 -5.906904,-5.25745 0,-1.11335 0.943251,-1.77825 2.458634,-1.77825 0.865932,0 2.010201,0.27834 2.582336,0.69584 l 0.49482,-1.06696 c -0.835007,-0.47935 -1.824645,-0.75769 -3.108083,-0.75769 -1.994739,0 -3.711142,0.85046 -3.711142,2.90706 0,3.46372 5.906901,2.8916 5.906901,5.25745 0,0.89685 -1.0051,1.77827 -2.628725,1.77827 -1.221586,0 -2.427707,-0.46389 -3.030768,-0.85048 l -0.494818,1.06696 c 0.835007,0.46389 1.855572,0.91231 3.494659,0.91231 z"
       inkscape:export-xdpi="72"
       inkscape:export-ydpi="72" />
    <path
       inkscape:connector-curvature="0"
       id="path112"
       style="font-style:normal;font-variant:normal;font-weight:normal;font-stretch:normal;font-size:6.88229752px;line-height:1.25;font-family:Cantarell;-inkscape-font-specification:Cantarell;letter-spacing:0.83079165px;word-spacing:0px;fill:#6c70b8;fill-opacity:1;stroke:none;stroke-width:0.57986617"
       d="m 77.52557,149.75014 v 1.12881 h 3.571976 v 9.57165 h 1.283435 v -9.57165 h 3.587439 v -1.12881 z"
       inkscape:export-xdpi="72"
       inkscape:export-ydpi="72" />
    <path
       inkscape:connector-curvature="0"
       id="path114"
       style="font-style:normal;font-variant:normal;font-weight:normal;font-stretch:normal;font-size:6.88229752px;line-height:1.25;font-family:Cantarell;-inkscape-font-specification:Cantarell;letter-spacing:0.83079165px;word-spacing:0px;fill:#6c70b8;fill-opacity:1;stroke:none;stroke-width:0.57986617"
       d="m 89.310308,160.4506 h 6.278018 v -1.12881 h -4.99458 v -4.00493 h 4.577077 v -1.12881 h -4.577077 v -3.3091 h 4.99458 v -1.12881 h -6.278018 z"
       inkscape:export-xdpi="72"
       inkscape:export-ydpi="72" />
    <path
       inkscape:connector-curvature="0"
       id="path116"
       style="font-style:normal;font-variant:normal;font-weight:normal;font-stretch:normal;font-size:6.88229752px;line-height:1.25;font-family:Cantarell;-inkscape-font-specification:Cantarell;letter-spacing:0.83079165px;word-spacing:0px;fill:#6c70b8;fill-opacity:1;stroke:none;stroke-width:0.57986617"
       d="m 99.421903,160.4506 h 6.278007 v -1.12881 h -4.99457 v -4.00493 h 4.57707 v -1.12881 h -4.57707 v -3.3091 h 4.99457 v -1.12881 h -6.278007 z"
       inkscape:export-xdpi="72"
       inkscape:export-ydpi="72" />
    <path
       inkscape:connector-curvature="0"
       id="path118"
       style="font-style:normal;font-variant:normal;font-weight:normal;font-stretch:normal;font-size:6.88229752px;line-height:1.25;font-family:Cantarell;-inkscape-font-specification:Cantarell;letter-spacing:0.83079165px;word-spacing:0px;fill:#6c70b8;fill-opacity:1;stroke:none;stroke-width:0.57986617"
       d="m 109.53348,149.75014 v 10.70046 h 6.09247 v -1.12881 h -4.80903 v -9.57165 z"
       inkscape:export-xdpi="72"
       inkscape:export-ydpi="72" />
    <path
       inkscape:connector-curvature="0"
       id="path120"
       style="font-style:normal;font-variant:normal;font-weight:normal;font-stretch:normal;font-size:6.88229752px;line-height:1.25;font-family:Cantarell;-inkscape-font-specification:Cantarell;letter-spacing:0.83079165px;word-spacing:0px;fill:#6c70b8;fill-opacity:1;stroke:none;stroke-width:0.57986617"
       d="m 123.88552,149.75014 v 1.12881 h 3.57198 v 9.57165 h 1.28343 v -9.57165 h 3.58743 v -1.12881 z"
       inkscape:export-xdpi="72"
       inkscape:export-ydpi="72" />
    <path
       inkscape:connector-curvature="0"
       id="path122"
       style="font-style:normal;font-variant:normal;font-weight:normal;font-stretch:normal;font-size:6.88229752px;line-height:1.25;font-family:Cantarell;-inkscape-font-specification:Cantarell;letter-spacing:0.83079165px;word-spacing:0px;fill:#6c70b8;fill-opacity:1;stroke:none;stroke-width:0.57986617"
       d="m 140.24734,149.53366 c -3.09262,0 -5.04097,2.4741 -5.04097,5.56672 0,3.0926 1.94835,5.50485 5.04097,5.50485 3.09262,0 5.04097,-2.41225 5.04097,-5.50485 0,-3.09262 -1.94835,-5.56672 -5.04097,-5.56672 z m 0,9.94278 c -2.4741,0 -3.75753,-1.8865 -3.75753,-4.37606 0,-2.48955 1.28343,-4.43791 3.75753,-4.43791 2.4741,0 3.75754,1.94836 3.75754,4.43791 0,2.48956 -1.28344,4.37606 -3.75754,4.37606 z"
       inkscape:export-xdpi="72"
       inkscape:export-ydpi="72" />
    <path
       inkscape:connector-curvature="0"
       id="path124"
       style="font-style:normal;font-variant:normal;font-weight:normal;font-stretch:normal;font-size:6.88229752px;line-height:1.25;font-family:Cantarell;-inkscape-font-specification:Cantarell;letter-spacing:0.83079165px;word-spacing:0px;fill:#6c70b8;fill-opacity:1;stroke:none;stroke-width:0.57986617"
       d="m 156.69364,150.87895 h 4.91726 v -1.12881 h -6.20069 v 10.70046 h 1.28343 v -4.96365 h 4.46885 v -1.12882 h -4.46885 z"
       inkscape:export-xdpi="72"
       inkscape:export-ydpi="72" />
    <path
       inkscape:connector-curvature="0"
       id="path126"
       style="font-style:normal;font-variant:normal;font-weight:normal;font-stretch:normal;font-size:6.88229752px;line-height:1.25;font-family:Cantarell;-inkscape-font-specification:Cantarell;letter-spacing:0.83079165px;word-spacing:0px;fill:#6c70b8;fill-opacity:1;stroke:none;stroke-width:0.57986617"
       d="m 170.03847,149.53366 c -3.0926,0 -5.04095,2.4741 -5.04095,5.56672 0,3.0926 1.94835,5.50485 5.04095,5.50485 3.09262,0 5.04097,-2.41225 5.04097,-5.50485 0,-3.09262 -1.94835,-5.56672 -5.04097,-5.56672 z m 0,9.94278 c -2.47408,0 -3.75752,-1.8865 -3.75752,-4.37606 0,-2.48955 1.28344,-4.43791 3.75752,-4.43791 2.4741,0 3.75753,1.94836 3.75753,4.43791 0,2.48956 -1.28343,4.37606 -3.75753,4.37606 z"
       inkscape:export-xdpi="72"
       inkscape:export-ydpi="72" />
    <path
       inkscape:connector-curvature="0"
       id="path128"
       style="font-style:normal;font-variant:normal;font-weight:normal;font-stretch:normal;font-size:6.88229752px;line-height:1.25;font-family:Cantarell;-inkscape-font-specification:Cantarell;letter-spacing:0.83079165px;word-spacing:0px;fill:#6c70b8;fill-opacity:1;stroke:none;stroke-width:0.57986617"
       d="m 185.3227,160.4506 h 1.48446 l -3.04623,-4.56161 c 1.469,-0.40204 2.45865,-1.60817 2.45865,-3.01531 0,-1.8401 -1.06696,-3.12354 -3.18542,-3.12354 h -3.92761 v 10.70046 h 1.28343 v -4.40697 h 2.04112 z m -2.73695,-5.53578 h -2.19577 v -4.03587 h 2.19577 c 1.39166,0 2.35039,0.29379 2.35039,1.99473 0,1.60816 -1.08241,2.04114 -2.35039,2.04114 z"
       inkscape:export-xdpi="72"
       inkscape:export-ydpi="72" />
    <path
       inkscape:connector-curvature="0"
       id="path130"
       style="font-style:normal;font-variant:normal;font-weight:normal;font-stretch:normal;font-size:6.88229752px;line-height:1.25;font-family:Cantarell;-inkscape-font-specification:Cantarell;letter-spacing:0.83079165px;word-spacing:0px;fill:#6c70b8;fill-opacity:1;stroke:none;stroke-width:0.57986617"
       d="m 197.74677,151.35831 0.49481,-1.06696 c -0.52575,-0.30927 -1.67002,-0.75769 -3.20085,-0.75769 -3.49466,0 -5.35024,2.4741 -5.35024,5.56672 0,3.5565 2.10298,5.50485 5.1956,5.50485 1.68547,0 3.0617,-0.69583 3.5256,-1.20612 v -4.59254 h -4.29875 v 1.12881 h 3.01531 v 2.98437 c -0.46389,0.27834 -1.19066,0.55669 -2.24216,0.55669 -2.47408,0 -3.91216,-1.42262 -3.91216,-4.37606 0,-2.48955 1.19066,-4.43791 4.0668,-4.43791 0.94325,0 2.01021,0.2474 2.70604,0.69584 z"
       inkscape:export-xdpi="72"
       inkscape:export-ydpi="72" />
    <path
       inkscape:connector-curvature="0"
       id="path132"
       style="font-style:normal;font-variant:normal;font-weight:normal;font-stretch:normal;font-size:6.88229752px;line-height:1.25;font-family:Cantarell;-inkscape-font-specification:Cantarell;letter-spacing:0.83079165px;word-spacing:0px;fill:#6c70b8;fill-opacity:1;stroke:none;stroke-width:0.57986617"
       d="m 202.86328,160.4506 h 6.27803 v -1.12881 h -4.99457 v -4.00493 h 4.57707 v -1.12881 h -4.57707 v -3.3091 h 4.99457 v -1.12881 h -6.27803 z"
       inkscape:export-xdpi="72"
       inkscape:export-ydpi="72" />
    <path
       inkscape:connector-curvature="0"
       id="path134"
       style="font-style:normal;font-variant:normal;font-weight:normal;font-stretch:normal;font-size:6.88229752px;line-height:1.25;font-family:Cantarell;-inkscape-font-specification:Cantarell;letter-spacing:0.83079165px;word-spacing:0px;fill:#6c70b8;fill-opacity:1;stroke:none;stroke-width:0.57986617"
       d="m 225.61057,152.95101 c 0,-2.28854 -1.23706,-3.20087 -3.27818,-3.20087 h -3.91216 v 10.70046 h 1.28344 v -4.40697 h 2.62872 c 1.8865,0 3.27818,-0.61854 3.27818,-3.09262 z m -3.71116,1.96381 h -2.19574 v -4.03587 h 2.19574 c 1.40714,0 2.41225,0.2474 2.41225,1.99473 0,1.82466 -1.02056,2.04114 -2.41225,2.04114 z"
       inkscape:export-xdpi="72"
       inkscape:export-ydpi="72" />
    <path
       inkscape:connector-curvature="0"
       id="path136"
       style="font-style:normal;font-variant:normal;font-weight:normal;font-stretch:normal;font-size:6.88229752px;line-height:1.25;font-family:Cantarell;-inkscape-font-specification:Cantarell;letter-spacing:0.83079165px;word-spacing:0px;fill:#6c70b8;fill-opacity:1;stroke:none;stroke-width:0.57986617"
       d="m 228.17255,149.75014 3.37095,10.70046 h 1.36075 l 2.62872,-9.216 2.82975,9.216 h 1.37623 l 3.20084,-10.70046 h -1.45354 l -2.4277,9.06138 -2.82975,-9.06138 h -1.39166 l -2.61327,9.06138 -2.59781,-9.06138 z"
       inkscape:export-xdpi="72"
       inkscape:export-ydpi="72" />
    <path
       inkscape:connector-curvature="0"
       id="path138"
       style="font-style:normal;font-variant:normal;font-weight:normal;font-stretch:normal;font-size:6.88229752px;line-height:1.25;font-family:Cantarell;-inkscape-font-specification:Cantarell;letter-spacing:0.83079165px;word-spacing:0px;fill:#6c70b8;fill-opacity:1;stroke:none;stroke-width:0.57986617"
       d="m 254.00091,160.4506 -3.64928,-10.70046 h -1.60817 l -3.63383,10.70046 h 1.32984 l 1.03602,-3.13901 h 4.05134 l 1.03602,3.13901 z m -4.49976,-9.37063 1.67002,5.10283 h -3.34002 z"
       inkscape:export-xdpi="72"
       inkscape:export-ydpi="72" />
    <path
       inkscape:connector-curvature="0"
       id="path140"
       style="font-style:normal;font-variant:normal;font-weight:normal;font-stretch:normal;font-size:6.88229752px;line-height:1.25;font-family:Cantarell;-inkscape-font-specification:Cantarell;letter-spacing:0.83079165px;word-spacing:0px;fill:#6c70b8;fill-opacity:1;stroke:none;stroke-width:0.57986617"
       d="m 257.17732,159.05892 -0.37111,0.95873 c 0.40204,0.26285 1.42261,0.58758 2.56687,0.58758 1.84011,0 2.96892,-0.72675 2.96892,-2.14937 0,-2.47408 -4.20598,-1.91742 -4.20598,-3.47918 0,-0.78863 0.80409,-1.14427 1.90198,-1.14427 0.80408,0 1.43806,0.30925 1.71639,0.49481 l 0.37113,-0.95871 c -0.37113,-0.20109 -1.0979,-0.55666 -2.27308,-0.55666 -1.49992,0 -2.99985,0.55666 -2.99985,2.08751 0,2.82975 4.20597,1.91742 4.20597,3.60289 0,0.80409 -0.92779,1.08242 -1.8865,1.08242 -0.86593,0 -1.70093,-0.38658 -1.99474,-0.52575 z"
       inkscape:export-xdpi="72"
       inkscape:export-ydpi="72" />
  </g>
</svg>
